<global>
amp_veltrack=60
ampeg_attack=0.002
ampeg_release=3.5
</global>

<group>
group_label=RR1
seq_length=8

<region>
hivel=25
key=D2
lovel=0
offset=5261
sample=Snare_Off_Hit_P_D4_RR1.opus
volume=3.7
</region>

<region>
hivel=51
key=D2
lovel=26
offset=4860
sample=Snare_Off_Hit_MP_D4_RR1.opus
volume=3.1
</region>

<region>
hivel=77
key=D2
lovel=52
offset=4293
sample=Snare_Off_Hit_MF_D4_RR1.opus
volume=2.6
</region>

<region>
hivel=127
key=D2
lovel=104
sample=Snare_Off_Hit_FF_D4_RR1.opus
volume=0.5
</region>

<region>
hivel=103
key=D2
lovel=78
offset=188
sample=Snare_Off_Hit_F_D4_RR1.opus
volume=0.1
</region>

<region>
hivel=77
key=C#2
lovel=52
offset=4410
sample=Snare_Off_Rim_MF_D4_RR1.opus
volume=1.1
</region>

<region>
hivel=127
key=C#2
lovel=104
offset=4398
sample=Snare_Off_Rim_FF_D4_RR1.opus
volume=1.6
</region>

<region>
hivel=103
key=C#2
lovel=78
offset=4393
sample=Snare_Off_Rim_F_D4_RR1.opus
volume=-1
</region>

<region>
hivel=25
key=C#2
lovel=0
offset=6360
sample=Snare_Off_Rim_P_D4_RR1.opus
volume=4.5
</region>

<region>
hivel=51
key=C#2
lovel=26
offset=4391
sample=Snare_Off_Rim_MP_D4_RR1.opus
volume=1.9
</region>
</group>

<group>
group_label=RR2
seq_length=8
seq_position=2

<region>
hivel=25
key=D2
lovel=0
offset=4901
sample=Snare_Off_Hit_P_D4_RR2.opus
volume=2.5
</region>

<region>
hivel=51
key=D2
lovel=26
offset=4888
sample=Snare_Off_Hit_MP_D4_RR2.opus
volume=0.1
</region>

<region>
hivel=77
key=D2
lovel=52
sample=Snare_Off_Hit_MF_D4_RR2.opus
volume=0.4
</region>

<region>
hivel=127
key=D2
lovel=104
sample=Snare_Off_Hit_FF_D4_RR2.opus
volume=-0.2
</region>

<region>
hivel=103
key=D2
lovel=78
offset=548
sample=Snare_Off_Hit_F_D4_RR2.opus
volume=0.7
</region>

<region>
hivel=77
key=C#2
lovel=52
offset=4401
sample=Snare_Off_Rim_MF_D4_RR2.opus
volume=1
</region>

<region>
hivel=127
key=C#2
lovel=104
offset=4435
sample=Snare_Off_Rim_FF_D4_RR2.opus
volume=0.3
</region>

<region>
hivel=103
key=C#2
lovel=78
offset=4422
sample=Snare_Off_Rim_F_D4_RR2.opus
volume=1.1
</region>

<region>
hivel=25
key=C#2
lovel=0
offset=5655
sample=Snare_Off_Rim_P_D4_RR2.opus
volume=3.2
</region>

<region>
hivel=51
key=C#2
lovel=26
offset=4427
sample=Snare_Off_Rim_MP_D4_RR2.opus
volume=-0.5
</region>
</group>

<group>
group_label=RR3
seq_length=8
seq_position=3

<region>
hivel=25
key=D2
lovel=0
offset=4880
sample=Snare_Off_Hit_P_D4_RR3.opus
volume=3.1
</region>

<region>
hivel=51
key=D2
lovel=26
offset=4886
sample=Snare_Off_Hit_MP_D4_RR3.opus
volume=1.1
</region>

<region>
hivel=127
key=D2
lovel=104
sample=Snare_Off_Hit_FF_D4_RR3.opus
volume=-0.5
</region>

<region>
hivel=77
key=D2
lovel=52
offset=551
sample=Snare_Off_Hit_MF_D4_RR3.opus
volume=0.7
</region>

<region>
hivel=103
key=D2
lovel=78
offset=535
sample=Snare_Off_Hit_F_D4_RR3.opus
volume=1.2
</region>

<region>
hivel=77
key=C#2
lovel=52
offset=4382
sample=Snare_Off_Rim_MF_D4_RR3.opus
volume=-1.2
</region>

<region>
hivel=127
key=C#2
lovel=104
offset=4424
sample=Snare_Off_Rim_FF_D4_RR3.opus
volume=0.5
</region>

<region>
hivel=103
key=C#2
lovel=78
offset=4401
sample=Snare_Off_Rim_F_D4_RR3.opus
volume=1.7
</region>

<region>
hivel=25
key=C#2
lovel=0
offset=6908
sample=Snare_Off_Rim_P_D4_RR3.opus
volume=2.5
</region>

<region>
hivel=51
key=C#2
lovel=26
offset=4420
sample=Snare_Off_Rim_MP_D4_RR3.opus
volume=0.5
</region>
</group>

<group>
group_label=RR4
seq_length=8
seq_position=4

<region>
hivel=25
key=D2
lovel=0
offset=5003
sample=Snare_Off_Hit_P_D4_RR4.opus
volume=3.4
</region>

<region>
hivel=51
key=D2
lovel=26
offset=4665
sample=Snare_Off_Hit_MP_D4_RR4.opus
volume=-0.8
</region>

<region>
hivel=127
key=D2
lovel=104
sample=Snare_Off_Hit_FF_D4_RR4.opus
volume=0.1
</region>

<region>
hivel=77
key=D2
lovel=52
offset=551
sample=Snare_Off_Hit_MF_D4_RR4.opus
volume=0.1
</region>

<region>
hivel=103
key=D2
lovel=78
offset=537
sample=Snare_Off_Hit_F_D4_RR4.opus
volume=-0.1
</region>

<region>
hivel=77
key=C#2
lovel=52
offset=4394
sample=Snare_Off_Rim_MF_D4_RR4.opus
volume=-0.7
</region>

<region>
hivel=127
key=C#2
lovel=104
offset=4429
sample=Snare_Off_Rim_FF_D4_RR4.opus
volume=-0.2
</region>

<region>
hivel=103
key=C#2
lovel=78
offset=4381
sample=Snare_Off_Rim_F_D4_RR4.opus
volume=0.8
</region>

<region>
hivel=25
key=C#2
lovel=0
offset=5501
sample=Snare_Off_Rim_P_D4_RR4.opus
volume=3.4
</region>

<region>
hivel=51
key=C#2
lovel=26
offset=4387
sample=Snare_Off_Rim_MP_D4_RR4.opus
volume=0.2
</region>
</group>

<group>
group_label=RR5
seq_length=8
seq_position=5

<region>
hivel=25
key=D2
lovel=0
offset=4668
sample=Snare_Off_Hit_P_D4_RR5.opus
volume=1.3
</region>

<region>
hivel=51
key=D2
lovel=26
offset=4887
sample=Snare_Off_Hit_MP_D4_RR5.opus
volume=1.9
</region>

<region>
hivel=127
key=D2
lovel=104
sample=Snare_Off_Hit_FF_D4_RR5.opus
volume=-0.4
</region>

<region>
hivel=77
key=D2
lovel=52
sample=Snare_Off_Hit_MF_D4_RR5.opus
volume=-0.2
</region>

<region>
hivel=103
key=D2
lovel=78
offset=536
sample=Snare_Off_Hit_F_D4_RR5.opus
volume=-0.4
</region>

<region>
hivel=77
key=C#2
lovel=52
offset=4400
sample=Snare_Off_Rim_MF_D4_RR5.opus
volume=-0.4
</region>

<region>
hivel=127
key=C#2
lovel=104
offset=4438
sample=Snare_Off_Rim_FF_D4_RR5.opus
volume=-0.1
</region>

<region>
hivel=103
key=C#2
lovel=78
offset=4412
sample=Snare_Off_Rim_F_D4_RR5.opus
volume=0.3
</region>

<region>
hivel=25
key=C#2
lovel=0
offset=5387
sample=Snare_Off_Rim_P_D4_RR5.opus
volume=4.2
</region>

<region>
hivel=51
key=C#2
lovel=26
offset=4418
sample=Snare_Off_Rim_MP_D4_RR5.opus
volume=0.3
</region>
</group>

<group>
group_label=RR6
seq_length=8
seq_position=6

<region>
hivel=25
key=D2
lovel=0
offset=4682
sample=Snare_Off_Hit_P_D4_RR6.opus
volume=0.6
</region>

<region>
hivel=51
key=D2
lovel=26
offset=4885
sample=Snare_Off_Hit_MP_D4_RR6.opus
volume=1.6
</region>

<region>
hivel=77
key=D2
lovel=52
sample=Snare_Off_Hit_MF_D4_RR6.opus
volume=0.6
</region>

<region>
hivel=127
key=D2
lovel=104
sample=Snare_Off_Hit_FF_D4_RR6.opus
volume=-0.7
</region>

<region>
hivel=103
key=D2
lovel=78
offset=526
sample=Snare_Off_Hit_F_D4_RR6.opus
volume=0.4
</region>

<region>
hivel=77
key=C#2
lovel=52
offset=4423
sample=Snare_Off_Rim_MF_D4_RR6.opus
volume=-0.3
</region>

<region>
hivel=127
key=C#2
lovel=104
offset=4398
sample=Snare_Off_Rim_FF_D4_RR6.opus
volume=-0.4
</region>

<region>
hivel=103
key=C#2
lovel=78
offset=4422
sample=Snare_Off_Rim_F_D4_RR6.opus
volume=-0.1
</region>

<region>
hivel=25
key=C#2
lovel=0
offset=5238
sample=Snare_Off_Rim_P_D4_RR6.opus
volume=1.3
</region>

<region>
hivel=51
key=C#2
lovel=26
offset=4415
sample=Snare_Off_Rim_MP_D4_RR6.opus
volume=1.6
</region>
</group>

<group>
group_label=RR7
seq_length=8
seq_position=7

<region>
hivel=25
key=D2
lovel=0
offset=4548
sample=Snare_Off_Hit_P_D4_RR7.opus
volume=1.1
</region>

<region>
hivel=51
key=D2
lovel=26
offset=4647
sample=Snare_Off_Hit_MP_D4_RR7.opus
volume=-0.2
</region>

<region>
hivel=127
key=D2
lovel=104
sample=Snare_Off_Hit_FF_D4_RR7.opus
volume=-0.1
</region>

<region>
hivel=77
key=D2
lovel=52
offset=553
sample=Snare_Off_Hit_MF_D4_RR7.opus
volume=0.5
</region>

<region>
hivel=103
key=D2
lovel=78
offset=533
sample=Snare_Off_Hit_F_D4_RR7.opus
volume=-0.2
</region>

<region>
hivel=77
key=C#2
lovel=52
offset=4385
sample=Snare_Off_Rim_MF_D4_RR7.opus
volume=-1.3
</region>

<region>
hivel=127
key=C#2
lovel=104
offset=4422
sample=Snare_Off_Rim_FF_D4_RR7.opus
volume=0.2
</region>

<region>
hivel=103
key=C#2
lovel=78
offset=4386
sample=Snare_Off_Rim_F_D4_RR7.opus
volume=1.1
</region>

<region>
hivel=25
key=C#2
lovel=0
offset=6802
sample=Snare_Off_Rim_P_D4_RR7.opus
volume=3.1
</region>

<region>
hivel=51
key=C#2
lovel=26
offset=4401
sample=Snare_Off_Rim_MP_D4_RR7.opus
volume=3
</region>
</group>

<group>
group_label=RR8
seq_length=8
seq_position=8

<region>
hivel=25
key=D2
lovel=0
offset=4546
sample=Snare_Off_Hit_P_D4_RR8.opus
volume=1
</region>

<region>
hivel=51
key=D2
lovel=26
offset=4877
sample=Snare_Off_Hit_MP_D4_RR8.opus
volume=1.4
</region>

<region>
hivel=77
key=D2
lovel=52
sample=Snare_Off_Hit_MF_D4_RR8.opus
volume=0.5
</region>

<region>
hivel=127
key=D2
lovel=104
sample=Snare_Off_Hit_FF_D4_RR8.opus
volume=-0.4
</region>

<region>
hivel=103
key=D2
lovel=78
offset=534
sample=Snare_Off_Hit_F_D4_RR8.opus
volume=-0.2
</region>

<region>
hivel=77
key=C#2
lovel=52
offset=4417
sample=Snare_Off_Rim_MF_D4_RR8.opus
volume=0.3
</region>

<region>
hivel=127
key=C#2
lovel=104
offset=4417
sample=Snare_Off_Rim_FF_D4_RR8.opus
volume=0.6
</region>

<region>
hivel=103
key=C#2
lovel=78
offset=4384
sample=Snare_Off_Rim_F_D4_RR8.opus
volume=0.4
</region>

<region>
hivel=25
key=C#2
lovel=0
offset=6046
sample=Snare_Off_Rim_P_D4_RR8.opus
volume=0.7
</region>

<region>
hivel=51
key=C#2
lovel=26
offset=4404
sample=Snare_Off_Rim_MP_D4_RR8.opus
volume=2.2
</region>
</group>